<svg width="67" height="168" viewBox="0 0 67 168" fill="none" xmlns="http://www.w3.org/2000/svg">
<g id="Vector" filter="url(#filter0_d_24_62)">
<mask id="path-1-inside-1_24_62" fill="white">
<path d="M4 0L63 80L4 160"/>
</mask>
<path d="M4 0L63 80L4 160" fill="#333333"/>
<path d="M8.02401 -2.96771C6.38499 -5.19011 3.25469 -5.66304 1.03229 -4.02401C-1.19011 -2.38499 -1.66304 0.745309 -0.0240145 2.96771L8.02401 -2.96771ZM63 80L67.024 82.9677C68.3253 81.2032 68.3253 78.7968 67.024 77.0323L63 80ZM-0.0240145 157.032C-1.66304 159.255 -1.19011 162.385 1.03229 164.024C3.25469 165.663 6.38499 165.19 8.02401 162.968L-0.0240145 157.032ZM-0.0240145 2.96771L58.976 82.9677L67.024 77.0323L8.02401 -2.96771L-0.0240145 2.96771ZM58.976 77.0323L-0.0240145 157.032L8.02401 162.968L67.024 82.9677L58.976 77.0323Z" fill="#FF5B5B" mask="url(#path-1-inside-1_24_62)"/>
</g>
<defs>
<filter id="filter0_d_24_62" x="0" y="0" width="67" height="168" filterUnits="userSpaceOnUse" color-interpolation-filters="sRGB">
<feFlood flood-opacity="0" result="BackgroundImageFix"/>
<feColorMatrix in="SourceAlpha" type="matrix" values="0 0 0 0 0 0 0 0 0 0 0 0 0 0 0 0 0 0 127 0" result="hardAlpha"/>
<feOffset dy="4"/>
<feGaussianBlur stdDeviation="2"/>
<feComposite in2="hardAlpha" operator="out"/>
<feColorMatrix type="matrix" values="0 0 0 0 0 0 0 0 0 0 0 0 0 0 0 0 0 0 0.25 0"/>
<feBlend mode="normal" in2="BackgroundImageFix" result="effect1_dropShadow_24_62"/>
<feBlend mode="normal" in="SourceGraphic" in2="effect1_dropShadow_24_62" result="shape"/>
</filter>
</defs>
</svg>
