<svg width="248" height="248" viewBox="0 0 248 248" fill="none" xmlns="http://www.w3.org/2000/svg">
<g id="Group" filter="url(#filter0_d_11_579)">
<g id="Group_2">
<g id="Group_3">
<path id="Vector" d="M114.394 0.526403C87.3545 2.4526 61.1283 14.2126 41.2046 33.3732C33.3774 40.8753 28.803 46.3497 23.1105 55.0683C12.7421 70.9849 5.72808 91.0579 4.40661 108.596L4 113.767H35.5121H67.0241L67.7357 110.016C72.5133 84.9752 92.1321 66.5242 117.138 63.3814C133.199 61.3538 150.277 66.9297 162.272 77.8786C171.217 86.0903 177.215 96.7351 179.553 108.394L180.569 113.463L212.183 113.665C239.527 113.767 243.797 113.665 243.797 112.956C243.797 112.449 243.39 108.901 242.882 105.048C237.494 64.2938 212.691 29.9263 175.69 12.0836C166.745 7.72432 155.563 3.97329 146.414 2.35123C140.518 1.23606 125.982 -0.183251 122.526 0.0195071C121.713 0.0195071 118.053 0.222265 114.394 0.526403Z" fill="#FF5B5B"/>
<path id="Vector_2" d="M117.85 76.4593C100.569 78.791 85.6264 92.0717 81.0521 109.103C79.629 114.375 79.629 125.73 81.0521 131.001C84.4066 143.471 93.047 154.014 104.33 159.489C111.649 163.037 115.614 163.848 124.254 163.848C130.963 163.747 132.183 163.645 137.062 162.023C144.686 159.387 149.362 156.549 155.156 150.669C159.426 146.411 160.747 144.586 163.085 139.923C167.05 132.015 167.863 127.757 167.456 118.228C167.05 107.887 165.22 102.412 159.629 94.5048C150.379 81.4269 133.809 74.229 117.85 76.4593ZM129.032 101.703C135.741 103.528 141.332 109.61 142.755 116.605C144.483 124.716 139.909 133.536 132.183 137.388C129.235 138.807 128.117 139.01 123.746 139.01C119.68 138.909 118.257 138.706 116.02 137.591C111.548 135.259 109.21 133.029 107.075 129.176C103.212 121.979 104.229 113.26 109.616 107.481C115.105 101.601 121.611 99.5738 129.032 101.703Z" fill="#FF5B5B"/>
<path id="Vector_3" d="M4.40661 131.711C6.03304 153.102 16.1982 177.94 30.2262 195.073C34.2922 200.04 43.8475 209.57 48.8285 213.625C85.1182 242.924 135.639 248.297 177.621 227.311C189.921 221.127 198.867 214.639 208.828 204.704C228.956 184.631 240.747 159.489 243.593 130.596L244 126.946H212.285H180.569L179.756 131.204C176.706 149.047 162.272 166.585 145.296 173.175C136.961 176.419 133.301 177.027 123.848 177.027C116.732 177.027 114.292 176.825 110.125 175.709C87.7611 169.728 71.5985 152.088 67.634 129.176L67.2274 126.946H35.6137H4L4.40661 131.711Z" fill="#FF5B5B"/>
</g>
</g>
</g>
<defs>
<filter id="filter0_d_11_579" x="0" y="0" width="248" height="248" filterUnits="userSpaceOnUse" color-interpolation-filters="sRGB">
<feFlood flood-opacity="0" result="BackgroundImageFix"/>
<feColorMatrix in="SourceAlpha" type="matrix" values="0 0 0 0 0 0 0 0 0 0 0 0 0 0 0 0 0 0 127 0" result="hardAlpha"/>
<feOffset dy="4"/>
<feGaussianBlur stdDeviation="2"/>
<feComposite in2="hardAlpha" operator="out"/>
<feColorMatrix type="matrix" values="0 0 0 0 0 0 0 0 0 0 0 0 0 0 0 0 0 0 0.25 0"/>
<feBlend mode="normal" in2="BackgroundImageFix" result="effect1_dropShadow_11_579"/>
<feBlend mode="normal" in="SourceGraphic" in2="effect1_dropShadow_11_579" result="shape"/>
</filter>
</defs>
</svg>
